<?xml version="1.0" standalone="no"?>
<!DOCTYPE svg PUBLIC "-//W3C//DTD SVG 20010904//EN"
 "http://www.w3.org/TR/2001/REC-SVG-20010904/DTD/svg10.dtd">
<svg version="1.0" xmlns="http://www.w3.org/2000/svg"
 width="207.000000pt" height="207.000000pt" viewBox="0 0 207.000000 207.000000"
 preserveAspectRatio="xMidYMid meet">
<metadata>
Created by potrace 1.11, written by Peter Selinger 2001-2013
</metadata>
<g transform="translate(0.000000,207.000000) scale(0.100000,-0.100000)"
fill="#000000" stroke="none">
<path d="M1005 2015 c-75 -314 -132 -452 -252 -606 -31 -41 -60 -76 -63 -79
-24 -19 -157 -208 -187 -265 -66 -125 -83 -194 -79 -320 3 -94 8 -120 33 -180
114 -276 381 -414 680 -351 315 67 480 255 488 555 3 137 -25 261 -91 392 -42
84 -75 133 -193 289 -165 218 -249 363 -305 526 -22 65 -24 67 -31 39z"/>
<path d="M287 1506 l-49 -43 44 -33 c24 -19 44 -35 46 -36 4 -2 -47 -104 -60
-121 -7 -9 -19 -6 -49 12 l-39 25 -13 -23 c-28 -45 -77 -141 -73 -144 4 -4
168 -52 178 -53 9 0 168 314 168 331 0 12 -90 129 -99 129 -3 0 -28 -20 -54
-44z"/>
<path d="M1678 1493 c-68 -41 -76 -13 70 -243 112 -175 101 -168 210 -127 l60
22 -42 82 -41 83 -35 -30 c-19 -17 -38 -30 -41 -30 -3 0 -29 32 -58 72 l-52
72 47 24 47 24 -44 44 c-24 24 -48 44 -54 43 -5 0 -36 -17 -67 -36z"/>
<path d="M1660 1298 c-13 -5 -26 -10 -27 -12 -2 -2 14 -39 34 -84 l38 -80 31
26 31 27 -41 66 c-38 61 -43 65 -66 57z"/>
<path d="M382 1240 c-28 -51 -31 -62 -20 -80 7 -11 15 -20 18 -20 3 0 23 30
45 66 37 64 38 67 20 80 -10 8 -22 14 -25 14 -3 0 -21 -27 -38 -60z"/>
<path d="M1530 1268 c0 -5 22 -56 49 -114 47 -99 51 -104 70 -92 11 7 23 19
26 26 2 7 -15 52 -39 101 -41 81 -46 87 -75 87 -17 0 -31 -4 -31 -8z"/>
<path d="M482 1238 c-6 -13 -27 -51 -46 -84 l-35 -62 21 -22 c25 -26 25 -27
93 86 48 77 52 90 37 96 -34 13 -59 8 -70 -14z"/>
<path d="M118 479 c-38 -43 -68 -81 -68 -86 1 -4 76 -64 167 -132 l167 -124
43 47 42 47 -27 31 c-15 17 -32 36 -37 42 -6 6 -52 61 -102 122 -51 61 -98
115 -105 121 -10 7 -30 -10 -80 -68z"/>
<path d="M393 448 c-31 -32 -39 -46 -30 -54 7 -6 41 -42 76 -79 l64 -68 33 39
c18 22 33 41 33 44 0 10 -114 154 -124 157 -6 2 -29 -16 -52 -39z"/>
<path d="M1610 264 c-107 -70 -196 -127 -197 -128 -2 -2 21 -85 31 -113 3 -7
44 1 128 28 68 22 173 56 235 75 l111 36 -13 31 c-8 18 -29 68 -48 111 -18 44
-38 81 -43 83 -5 2 -97 -54 -204 -123z"/>
<path d="M1485 354 c-16 -15 -52 -46 -79 -70 l-49 -45 19 -39 c10 -22 24 -38
29 -36 21 8 175 118 175 125 0 6 -59 91 -63 91 -1 0 -15 -12 -32 -26z"/>
</g>
</svg>
